<svg width="1200" height="391" viewBox="0 0 1200 391" fill="none" xmlns="http://www.w3.org/2000/svg">
<g clip-path="url(#clip0_3217_1343)">
<rect width="1200" height="391" rx="24" fill="#011647"/>
<g opacity="0.24">
<mask id="mask0_3217_1343" style="mask-type:alpha" maskUnits="userSpaceOnUse" x="-121" y="-187" width="1446" height="686">
<g clip-path="url(#clip1_3217_1343)">
<path d="M188.253 -97.6544C188.253 -244.914 395.929 -376.433 516.034 -376.433C636.14 -376.433 1386.55 140.065 1386.55 287.325C1386.55 434.585 308.358 231.854 188.253 231.854C68.1472 231.854 188.253 49.6054 188.253 -97.6544Z" fill="url(#paint0_linear_3217_1343)"/>
<path d="M-143.539 -182.213C-467.604 -474.901 -317.905 -327.813 -596.25 -320.403C-639.915 -328.814 -714.041 -329.214 -661.229 -263.522C-595.213 -181.408 -616.489 -123.41 -533.987 -33.946C-451.484 55.5181 -401.24 146.412 -276.684 288.702C-152.129 430.992 -142.547 313.698 -2.12623 324.817C138.294 335.936 74.2484 318.279 267.992 111.822C461.736 -94.6352 180.527 110.476 -143.539 -182.213Z" fill="#D9D9D9"/>
</g>
</mask>
<g mask="url(#mask0_3217_1343)">
<line x1="977.58" y1="157.869" x2="-533.996" y2="157.869" stroke="#CCD0DA" stroke-width="1.2607"/>
<line x1="977.58" y1="319.232" x2="-533.996" y2="319.232" stroke="#CCD0DA" stroke-width="1.2607"/>
<line x1="977.58" y1="238.548" x2="-533.996" y2="238.548" stroke="#CCD0DA" stroke-width="1.2607"/>
<line x1="977.58" y1="77.1811" x2="-533.996" y2="77.1811" stroke="#CCD0DA" stroke-width="1.2607"/>
<line x1="930.304" y1="186.23" x2="930.304" y2="-981.175" stroke="#CCD0DA" stroke-width="1.2607"/>
<line x1="284.824" y1="186.23" x2="284.824" y2="-981.175" stroke="#CCD0DA" stroke-width="1.2607"/>
<line x1="607.564" y1="186.23" x2="607.564" y2="-981.175" stroke="#CCD0DA" stroke-width="1.2607"/>
<line x1="768.934" y1="186.23" x2="768.934" y2="-981.175" stroke="#CCD0DA" stroke-width="1.2607"/>
<line x1="123.458" y1="186.23" x2="123.458" y2="-981.175" stroke="#CCD0DA" stroke-width="1.2607"/>
<line x1="446.194" y1="186.23" x2="446.194" y2="-981.175" stroke="#CCD0DA" stroke-width="1.2607"/>
<line x1="849.617" y1="186.23" x2="849.617" y2="-981.175" stroke="#CCD0DA" stroke-width="1.2607"/>
<line x1="204.14" y1="186.23" x2="204.14" y2="-981.175" stroke="#CCD0DA" stroke-width="1.2607"/>
<line x1="526.881" y1="186.23" x2="526.881" y2="-981.175" stroke="#CCD0DA" stroke-width="1.2607"/>
<line x1="688.247" y1="186.23" x2="688.247" y2="-981.175" stroke="#CCD0DA" stroke-width="1.2607"/>
<line x1="42.77" y1="186.23" x2="42.7701" y2="-981.175" stroke="#CCD0DA" stroke-width="1.2607"/>
<line x1="365.511" y1="186.23" x2="365.511" y2="-981.175" stroke="#CCD0DA" stroke-width="1.2607"/>
</g>
</g>
</g>
<defs>
<linearGradient id="paint0_linear_3217_1343" x1="867.138" y1="213.574" x2="412.657" y2="-28.4802" gradientUnits="userSpaceOnUse">
<stop stop-color="white"/>
<stop offset="1" stop-color="white" stop-opacity="0"/>
</linearGradient>
<clipPath id="clip0_3217_1343">
<rect width="1200" height="391" rx="24" fill="white"/>
</clipPath>
<clipPath id="clip1_3217_1343">
<rect width="1446" height="685.109" fill="white" transform="matrix(-1 0 0 -1 1325 498.109)"/>
</clipPath>
</defs>
</svg>
