<svg width="24" height="25" viewBox="0 0 24 25" fill="none" xmlns="http://www.w3.org/2000/svg">
<path d="M12 8.75C11.2583 8.75 10.5333 8.96993 9.91661 9.38199C9.29993 9.79404 8.81928 10.3797 8.53545 11.0649C8.25162 11.7502 8.17736 12.5042 8.32205 13.2316C8.46675 13.959 8.8239 14.6272 9.34835 15.1517C9.8728 15.6761 10.541 16.0333 11.2684 16.1779C11.9958 16.3226 12.7498 16.2484 13.4351 15.9645C14.1203 15.6807 14.706 15.2001 15.118 14.5834C15.5301 13.9667 15.75 13.2417 15.75 12.5C15.75 11.5054 15.3549 10.5516 14.6517 9.84835C13.9484 9.14509 12.9946 8.75 12 8.75ZM12 14.75C11.555 14.75 11.12 14.618 10.75 14.3708C10.38 14.1236 10.0916 13.7722 9.92127 13.361C9.75097 12.9499 9.70642 12.4975 9.79323 12.061C9.88005 11.6246 10.0943 11.2237 10.409 10.909C10.7237 10.5943 11.1246 10.38 11.561 10.2932C11.9975 10.2064 12.4499 10.251 12.861 10.4213C13.2722 10.5916 13.6236 10.88 13.8708 11.25C14.118 11.62 14.25 12.055 14.25 12.5C14.25 13.0967 14.0129 13.669 13.591 14.091C13.169 14.5129 12.5967 14.75 12 14.75ZM22.5 5.75H1.5C1.30109 5.75 1.11032 5.82902 0.96967 5.96967C0.829018 6.11032 0.75 6.30109 0.75 6.5V18.5C0.75 18.6989 0.829018 18.8897 0.96967 19.0303C1.11032 19.171 1.30109 19.25 1.5 19.25H22.5C22.6989 19.25 22.8897 19.171 23.0303 19.0303C23.171 18.8897 23.25 18.6989 23.25 18.5V6.5C23.25 6.30109 23.171 6.11032 23.0303 5.96967C22.8897 5.82902 22.6989 5.75 22.5 5.75ZM18.1547 17.75H5.84531C5.5935 16.8984 5.13263 16.1233 4.50467 15.4953C3.87671 14.8674 3.10162 14.4065 2.25 14.1547V10.8453C3.10162 10.5935 3.87671 10.1326 4.50467 9.50467C5.13263 8.87671 5.5935 8.10162 5.84531 7.25H18.1547C18.4065 8.10162 18.8674 8.87671 19.4953 9.50467C20.1233 10.1326 20.8984 10.5935 21.75 10.8453V14.1547C20.8984 14.4065 20.1233 14.8674 19.4953 15.4953C18.8674 16.1233 18.4065 16.8984 18.1547 17.75ZM21.75 9.25344C20.8504 8.86662 20.1334 8.14959 19.7466 7.25H21.75V9.25344ZM4.25344 7.25C3.86662 8.14959 3.14959 8.86662 2.25 9.25344V7.25H4.25344ZM2.25 15.7466C3.14959 16.1334 3.86662 16.8504 4.25344 17.75H2.25V15.7466ZM19.7466 17.75C20.1334 16.8504 20.8504 16.1334 21.75 15.7466V17.75H19.7466Z" fill="#B43BBB"/>
</svg>
