<svg width="25" height="24" viewBox="0 0 25 24" fill="none" xmlns="http://www.w3.org/2000/svg">
<path d="M17 3C15.0678 3 13.4113 4.7025 12.5 7.29844C11.5887 4.7025 9.93219 3 8 3C5.05625 3 2.75 6.95344 2.75 12C2.75 17.0466 5.05625 21 8 21C9.93219 21 11.5887 19.2975 12.5 16.7016C13.4113 19.2975 15.0678 21 17 21C19.9438 21 22.25 17.0466 22.25 12C22.25 6.95344 19.9438 3 17 3ZM10.5237 17.4741C9.82156 18.7612 8.90188 19.5 8 19.5C7.09812 19.5 6.17844 18.7612 5.47625 17.4741C5.02231 16.6132 4.69878 15.6897 4.51625 14.7338C4.97317 14.9403 5.47457 15.029 5.97461 14.9917C6.47464 14.9545 6.95737 14.7925 7.37867 14.5206C7.79996 14.2487 8.14638 13.8755 8.38625 13.4352C8.62613 12.9948 8.75181 12.5014 8.75181 12C8.75181 11.4986 8.62613 11.0052 8.38625 10.5648C8.14638 10.1245 7.79996 9.75133 7.37867 9.47942C6.95737 9.2075 6.47464 9.04552 5.97461 9.00828C5.47457 8.97105 4.97317 9.05974 4.51625 9.26625C4.69878 8.31031 5.02231 7.38679 5.47625 6.52594C6.17844 5.23875 7.09812 4.5 8 4.5C8.90188 4.5 9.82156 5.23875 10.5237 6.52594C11.3141 7.97531 11.75 9.91969 11.75 12C11.75 14.0803 11.3141 16.0247 10.5237 17.4741ZM4.25 12C4.25 11.7033 4.33797 11.4133 4.5028 11.1666C4.66762 10.92 4.90189 10.7277 5.17597 10.6142C5.45006 10.5006 5.75166 10.4709 6.04264 10.5288C6.33361 10.5867 6.60088 10.7296 6.81066 10.9393C7.02044 11.1491 7.1633 11.4164 7.22118 11.7074C7.27906 11.9983 7.24935 12.2999 7.13582 12.574C7.02229 12.8481 6.83003 13.0824 6.58336 13.2472C6.33668 13.412 6.04667 13.5 5.75 13.5C5.35218 13.5 4.97064 13.342 4.68934 13.0607C4.40804 12.7794 4.25 12.3978 4.25 12ZM19.5238 17.4741C18.8216 18.7612 17.9019 19.5 17 19.5C16.0981 19.5 15.1784 18.7612 14.4762 17.4741C14.0223 16.6132 13.6988 15.6897 13.5162 14.7338C13.9732 14.9403 14.4746 15.029 14.9746 14.9917C15.4746 14.9545 15.9574 14.7925 16.3787 14.5206C16.8 14.2487 17.1464 13.8755 17.3863 13.4352C17.6261 12.9948 17.7518 12.5014 17.7518 12C17.7518 11.4986 17.6261 11.0052 17.3863 10.5648C17.1464 10.1245 16.8 9.75133 16.3787 9.47942C15.9574 9.2075 15.4746 9.04552 14.9746 9.00828C14.4746 8.97105 13.9732 9.05974 13.5162 9.26625C13.6988 8.31031 14.0223 7.38679 14.4762 6.52594C15.1784 5.23875 16.0981 4.5 17 4.5C17.9019 4.5 18.8216 5.23875 19.5238 6.52594C20.3141 7.97531 20.75 9.91969 20.75 12C20.75 14.0803 20.3141 16.0247 19.5238 17.4741ZM13.25 12C13.25 11.7033 13.338 11.4133 13.5028 11.1666C13.6676 10.92 13.9019 10.7277 14.176 10.6142C14.4501 10.5006 14.7517 10.4709 15.0426 10.5288C15.3336 10.5867 15.6009 10.7296 15.8107 10.9393C16.0204 11.1491 16.1633 11.4164 16.2212 11.7074C16.2791 11.9983 16.2494 12.2999 16.1358 12.574C16.0223 12.8481 15.83 13.0824 15.5834 13.2472C15.3367 13.412 15.0467 13.5 14.75 13.5C14.3522 13.5 13.9706 13.342 13.6893 13.0607C13.408 12.7794 13.25 12.3978 13.25 12Z" fill="#3BBB4A"/>
</svg>
