<svg width="48" height="49" viewBox="0 0 48 49" fill="none" xmlns="http://www.w3.org/2000/svg">
<path d="M8.00016 16.5C8.00016 20.7435 9.68587 24.8131 12.6865 27.8137C15.687 30.8143 19.7567 32.5 24.0002 32.5C28.2436 32.5 32.3133 30.8143 35.3139 27.8137C38.3145 24.8131 40.0002 20.7435 40.0002 16.5C40.0002 12.2565 38.3145 8.18687 35.3139 5.18629C32.3133 2.18571 28.2436 0.5 24.0002 0.5C19.7567 0.5 15.687 2.18571 12.6865 5.18629C9.68587 8.18687 8.00016 12.2565 8.00016 16.5Z" fill="#EDBB23"/>
<path d="M24.0002 32.5L33.0668 48.2067L37.3282 39.5853L46.9228 40.204L37.8562 24.5" fill="#EDBB23"/>
<path d="M10.1384 24.5L1.07178 40.2067L10.6664 39.5853L14.9278 48.204L23.9944 32.5" fill="#EDBB23"/>
<path d="M24.0002 32.5C19.7567 32.5 15.687 30.8143 12.6865 27.8137C9.68587 24.8131 8.00016 20.7435 8.00016 16.5C8.00016 12.2565 9.68587 8.18687 12.6865 5.18629C15.687 2.18571 19.7567 0.5 24.0002 0.5C28.2436 0.5 32.3133 2.18571 35.3139 5.18629C38.3145 8.18687 40.0002 12.2565 40.0002 16.5C40.0002 20.7435 38.3145 24.8131 35.3139 27.8137C32.3133 30.8143 28.2436 32.5 24.0002 32.5ZM24.0002 32.5L33.0668 48.2067L37.3282 39.5853L46.9228 40.204L37.8562 24.5M10.1384 24.5L1.07178 40.2067L10.6664 39.5853L14.9278 48.204L23.9944 32.5" stroke="#C69C1E" stroke-width="0.5" stroke-linecap="round" stroke-linejoin="round"/>
</svg>
