<svg width="37" height="28" viewBox="0 0 37 28" fill="none" xmlns="http://www.w3.org/2000/svg">
<path d="M31.2133 3.10138C28.8828 2.07704 26.3911 1.33256 23.7862 0.908691C23.4661 1.45211 23.0924 2.183 22.8348 2.76446C20.0655 2.3732 17.3217 2.3732 14.6035 2.76446C14.3459 2.183 13.9635 1.45211 13.6408 0.908691C11.033 1.33256 8.5384 2.07976 6.20807 3.10682C1.50774 9.77998 0.233556 16.2874 0.870648 22.7024C3.98815 24.8897 7.00938 26.2183 9.97964 27.0878C10.713 26.1396 11.3671 25.1316 11.9306 24.0691C10.8574 23.686 9.82958 23.2133 8.85836 22.6644C9.11603 22.4851 9.36804 22.2976 9.61155 22.1047C15.5351 24.7076 21.9711 24.7076 27.8239 22.1047C28.0702 22.2976 28.3222 22.4851 28.5771 22.6644C27.603 23.2159 26.5724 23.6887 25.4992 24.0719C26.0627 25.1316 26.7139 26.1423 27.4501 27.0905C30.4232 26.2211 33.4472 24.8924 36.5648 22.7024C37.3123 15.2658 35.2878 8.81812 31.2133 3.10138ZM12.7375 18.7573C10.9594 18.7573 9.50112 17.1976 9.50112 15.2984C9.50112 13.3992 10.9282 11.8369 12.7375 11.8369C14.5469 11.8369 16.0051 13.3964 15.9739 15.2984C15.9768 17.1976 14.5469 18.7573 12.7375 18.7573ZM24.6979 18.7573C22.9197 18.7573 21.4614 17.1976 21.4614 15.2984C21.4614 13.3992 22.8886 11.8369 24.6979 11.8369C26.5072 11.8369 27.9655 13.3964 27.9343 15.2984C27.9343 17.1976 26.5072 18.7573 24.6979 18.7573Z" fill="#5865F2"/>
</svg>
