<svg width="49" height="48" viewBox="0 0 49 48" fill="none" xmlns="http://www.w3.org/2000/svg">
<path d="M49.0001 24C49.0001 10.7438 38.2218 0 24.9231 0C11.6244 0 0.846191 10.7438 0.846191 24C0.846191 35.9813 9.64932 45.9094 21.1611 47.7094V30.9375H15.0478V24H21.1611V18.7125C21.1611 12.6984 24.7539 9.375 30.2558 9.375C32.8892 9.375 35.6449 9.84375 35.6449 9.84375V15.75H32.6071C29.6162 15.75 28.6851 17.6016 28.6851 19.5V24H35.3627L34.2953 30.9375H28.6851V47.7094C40.1969 45.9094 49.0001 35.9813 49.0001 24Z" fill="#1877F2"/>
<path d="M34.2954 30.9375L35.3628 24H28.6852V19.5C28.6852 17.6016 29.6163 15.75 32.6072 15.75H35.645V9.84375C35.645 9.84375 32.8893 9.375 30.2559 9.375C24.754 9.375 21.1612 12.6984 21.1612 18.7125V24H15.0479V30.9375H21.1612V47.7094C22.3885 47.9016 23.6441 48 24.9232 48C26.2023 48 27.4579 47.9016 28.6852 47.7094V30.9375H34.2954Z" fill="white"/>
</svg>
