<svg width="37" height="28" viewBox="0 0 37 28" fill="none" xmlns="http://www.w3.org/2000/svg">
<path d="M2.73677 27.1309H8.46404V13.2218L0.282227 7.08545V24.6764C0.282227 26.0325 1.38064 27.1309 2.73677 27.1309Z" fill="#4285F4"/>
<path d="M28.1001 27.1309H33.8274C35.1835 27.1309 36.2819 26.0325 36.2819 24.6764V7.08545L28.1001 13.2218V27.1309Z" fill="#34A853"/>
<path d="M28.1001 2.58567V13.222L36.2819 7.08567V3.81294C36.2819 0.779535 32.819 -0.952965 30.391 0.867489L28.1001 2.58567Z" fill="#FBBC04"/>
<path fill-rule="evenodd" clip-rule="evenodd" d="M8.46387 13.2223V2.58594L18.2821 9.94957L28.1002 2.58594V13.2223L18.2821 20.5859L8.46387 13.2223Z" fill="#EA4335"/>
<path d="M0.282227 3.81294V7.08567L8.46404 13.222V2.58567L6.17314 0.867489C3.74518 -0.952965 0.282227 0.779535 0.282227 3.81294Z" fill="#C5221F"/>
</svg>
