<?xml version="1.0" encoding="UTF-8"?>
<!DOCTYPE svg PUBLIC "-//W3C//DTD SVG 1.1//EN" "http://www.w3.org/Graphics/SVG/1.1/DTD/svg11.dtd">
<!-- Creator: CorelDRAW X8 -->
<svg xmlns="http://www.w3.org/2000/svg" xml:space="preserve" width="2.67532in" height="0.365461in" version="1.1" style="shape-rendering:geometricPrecision; text-rendering:geometricPrecision; image-rendering:optimizeQuality; fill-rule:evenodd; clip-rule:evenodd"
viewBox="0 0 2675 365"
 xmlns:xlink="http://www.w3.org/1999/xlink">
 <defs>
  <style type="text/css">
   <![CDATA[
    .fil0 {fill:#011647}
    .fil1 {fill:#EDBB23;fill-rule:nonzero}
   ]]>
  </style>
 </defs>
 <g id="Layer_x0020_1">
  <metadata id="CorelCorpID_0Corel-Layer"/>
  <g id="_2311641799376">
   <path class="fil0" d="M926 361l-54 0 0 -145c0,-24 -4,-42 -12,-53 -8,-11 -19,-17 -34,-17 -16,0 -30,6 -42,17 -13,12 -22,26 -28,44l0 154 -54 0 0 -145c0,-25 -4,-42 -12,-53 -8,-11 -19,-17 -34,-17 -15,0 -30,6 -42,17 -13,11 -22,26 -28,44l0 154 -54 0 0 -259 49 0 0 52c10,-18 24,-32 40,-42 17,-9 36,-14 57,-14 22,0 38,5 51,17 12,11 20,25 23,42 11,-20 24,-34 41,-44 16,-10 35,-15 56,-15 15,0 28,3 38,8 10,6 18,14 23,23 6,10 11,21 13,34 2,12 3,26 3,40l0 158zm46 0l0 -259 54 0 0 259 -54 0zm0 -301l0 -60 54 0 0 60 -54 0zm103 -60l54 0 0 286c0,9 3,17 8,22 5,6 12,9 21,9 3,0 7,-1 12,-2 5,-2 9,-3 14,-5l8 43c-8,3 -18,6 -29,8 -10,2 -20,3 -29,3 -18,0 -33,-5 -43,-15 -11,-10 -16,-25 -16,-43l0 -306zm248 365c-20,0 -38,-3 -54,-10 -17,-7 -31,-17 -43,-29 -11,-12 -20,-26 -27,-43 -6,-16 -9,-33 -9,-51 0,-18 3,-35 9,-51 7,-17 16,-31 27,-43 12,-13 26,-23 43,-30 16,-7 34,-10 55,-10 20,0 38,3 54,11 16,7 30,17 42,29 11,12 20,26 26,42 6,15 9,32 9,50 0,4 0,7 0,11 0,3 -1,6 -1,8l-207 0c1,12 4,22 8,32 5,9 11,17 18,23 7,7 15,12 24,16 9,4 18,5 28,5 7,0 15,0 22,-2 7,-2 13,-5 19,-8 6,-4 11,-8 16,-13 5,-5 8,-10 11,-16l46 13c-9,20 -23,36 -44,48 -21,12 -44,18 -72,18zm79 -153c-1,-11 -4,-21 -8,-30 -5,-9 -11,-17 -18,-24 -6,-6 -14,-11 -24,-15 -9,-3 -19,-5 -29,-5 -10,0 -20,2 -29,5 -9,4 -17,9 -24,15 -6,7 -12,15 -16,24 -5,9 -7,19 -8,30l156 0z"/>
   <path class="fil1" d="M1577 357c-21,0 -42,-4 -62,-10 -21,-7 -38,-17 -53,-29l22 -35c15,11 30,20 45,26 15,5 31,8 47,8 16,0 29,-3 38,-9 9,-6 14,-15 14,-27 0,-11 -5,-19 -16,-23 -10,-5 -27,-11 -49,-17 -16,-4 -30,-8 -42,-12 -11,-4 -20,-9 -28,-14 -7,-5 -12,-11 -15,-18 -4,-7 -5,-16 -5,-25 0,-14 2,-25 7,-35 5,-11 12,-19 22,-26 9,-7 19,-13 31,-16 12,-4 26,-6 40,-6 19,0 37,3 54,9 17,6 32,15 45,26l-23 32c-24,-19 -50,-28 -77,-28 -14,0 -25,3 -34,8 -10,6 -15,15 -15,28 0,5 1,9 3,13 2,4 6,7 10,9 4,3 10,5 17,8 7,2 16,4 27,7 17,4 32,8 45,13 12,4 23,9 31,15 8,5 14,12 18,20 4,8 6,17 6,28 0,25 -9,44 -28,58 -18,15 -43,22 -75,22zm277 -18c-7,3 -16,7 -28,11 -12,4 -25,6 -39,6 -9,0 -17,-1 -24,-4 -8,-2 -15,-5 -20,-10 -6,-5 -11,-11 -14,-18 -3,-7 -5,-16 -5,-27l0 -161 -34 0 0 -42 34 0 0 -85 54 0 0 85 57 0 0 42 -57 0 0 144c1,9 4,16 9,20 5,4 11,6 19,6 8,0 15,-1 22,-4 7,-3 12,-5 15,-6l11 43zm131 18c-21,0 -39,-4 -55,-11 -17,-7 -31,-17 -42,-29 -12,-12 -21,-27 -27,-43 -6,-16 -9,-33 -9,-51 0,-18 3,-35 9,-51 6,-16 15,-31 27,-43 12,-12 26,-22 42,-29 16,-7 34,-11 55,-11 20,0 38,4 54,11 16,7 30,17 42,29 12,12 21,27 27,43 6,16 9,33 9,51 0,18 -3,35 -9,51 -6,16 -15,31 -27,43 -12,12 -26,22 -42,29 -16,7 -34,11 -54,11zm-77 -134c0,13 2,25 6,35 3,11 9,20 16,27 7,8 15,14 24,19 10,4 20,6 31,6 10,0 20,-2 30,-6 9,-5 17,-11 24,-19 7,-8 13,-17 17,-27 3,-11 5,-23 5,-35 0,-12 -2,-24 -5,-34 -4,-11 -10,-20 -17,-28 -7,-8 -15,-14 -24,-19 -10,-4 -20,-6 -30,-6 -11,0 -21,2 -30,6 -10,5 -18,11 -25,19 -7,8 -12,17 -16,28 -4,11 -6,22 -6,34zm472 129l-54 0 0 -145c0,-24 -4,-42 -12,-53 -8,-11 -19,-16 -34,-16 -8,0 -16,1 -24,4 -8,3 -15,7 -22,13 -7,5 -13,11 -18,19 -6,7 -10,15 -13,24l0 154 -54 0 0 -258 49 0 0 51c10,-17 24,-31 43,-41 19,-10 39,-15 62,-15 15,0 28,3 38,9 10,5 18,13 23,23 6,9 10,20 13,33 2,13 3,26 3,40l0 158zm163 5c-20,0 -38,-4 -55,-11 -16,-7 -30,-17 -42,-29 -11,-12 -20,-26 -27,-42 -6,-16 -9,-33 -9,-52 0,-18 3,-35 9,-51 7,-16 16,-31 27,-43 12,-12 26,-22 42,-29 17,-7 35,-11 56,-11 20,0 38,4 54,11 16,7 30,17 42,29 11,12 20,26 26,42 6,16 9,33 9,50 0,4 0,8 0,11 -1,4 -1,6 -1,9l-207 0c1,11 4,22 8,31 5,9 11,17 18,24 7,7 15,12 24,15 9,4 18,6 28,6 7,0 15,-1 22,-3 7,-2 13,-4 19,-8 6,-3 11,-7 16,-12 4,-5 8,-11 11,-17l46 14c-9,19 -24,35 -44,47 -21,13 -45,19 -72,19zm79 -154c-1,-11 -4,-21 -9,-30 -4,-9 -10,-17 -17,-23 -6,-7 -15,-12 -24,-15 -9,-4 -19,-6 -29,-6 -10,0 -20,2 -29,6 -9,3 -17,8 -24,15 -6,6 -12,14 -16,23 -5,9 -7,19 -8,30l156 0z"/>
   <path class="fil0" d="M100 102c29,-2 48,13 59,30 30,44 -10,125 30,149 8,5 17,7 24,7 8,0 16,-2 24,-7 40,-24 1,-105 31,-149 11,-17 30,-32 59,-30 -30,-27 -80,-23 -114,-1 -34,-22 -83,-26 -113,1z"/>
   <g>
    <path class="fil0" d="M50 125l0 0c27,0 50,22 50,50l0 133c0,28 -23,50 -50,50l0 0c-28,0 -50,-22 -50,-50l0 -133c0,-28 22,-50 50,-50z"/>
    <path class="fil0" d="M377 125l0 0c27,0 50,22 50,50l0 133c0,28 -23,50 -50,50l0 0c-28,0 -50,-22 -50,-50l0 -133c0,-28 22,-50 50,-50z"/>
   </g>
  </g>
 </g>
</svg>
