<svg width="49" height="48" viewBox="0 0 49 48" fill="none" xmlns="http://www.w3.org/2000/svg">
<path d="M24.0769 48C37.3743 48 48.1539 37.2548 48.1539 24C48.1539 10.7452 37.3743 0 24.0769 0C10.7796 0 0 10.7452 0 24C0 37.2548 10.7796 48 24.0769 48Z" fill="#25D366"/>
<path fill-rule="evenodd" clip-rule="evenodd" d="M24.8703 37.3528H24.8644C22.4683 37.352 20.1138 36.7527 18.0227 35.6157L10.4331 37.6003L12.4642 30.2051C11.2113 28.0408 10.5521 25.5858 10.5531 23.0705C10.5563 15.202 16.9788 8.80029 24.8702 8.80029C28.7001 8.80194 32.2948 10.2882 34.9978 12.9857C37.7008 15.6831 39.1886 19.2686 39.1871 23.0818C39.184 30.9486 32.764 37.3496 24.8703 37.3528ZM18.3743 33.0322L18.8089 33.2892C20.6359 34.37 22.7302 34.9418 24.8655 34.9426H24.8703C31.429 34.9426 36.7672 29.6214 36.7698 23.081C36.771 19.9115 35.5345 16.9314 33.2878 14.6893C31.0411 12.4472 28.0534 11.2118 24.875 11.2107C18.3112 11.2107 12.973 16.5314 12.9704 23.0714C12.9695 25.3127 13.5986 27.4954 14.7898 29.3839L15.0727 29.8327L13.8706 34.2098L18.3743 33.0322ZM31.5931 26.1543C31.8426 26.2745 32.0111 26.3557 32.0831 26.4754C32.1725 26.6241 32.1725 27.3381 31.8745 28.1711C31.5763 29.0041 30.1472 29.7643 29.4598 29.8666C28.8435 29.9585 28.0636 29.9968 27.2067 29.7253C26.6871 29.561 26.0208 29.3416 25.1673 28.9742C21.8136 27.5307 19.5472 24.2907 19.1189 23.6783C19.0889 23.6354 19.0679 23.6054 19.0562 23.5898L19.0533 23.586C18.864 23.3342 17.5955 21.6471 17.5955 19.9011C17.5955 18.2585 18.4049 17.3976 18.7775 17.0013C18.803 16.9742 18.8265 16.9492 18.8475 16.9263C19.1754 16.5693 19.563 16.48 19.8015 16.48C20.0399 16.48 20.2787 16.4822 20.4871 16.4927C20.5128 16.494 20.5396 16.4938 20.5672 16.4936C20.7757 16.4924 21.0356 16.4909 21.292 17.1048C21.3906 17.3411 21.535 17.6913 21.6872 18.0607C21.995 18.8077 22.3351 19.6331 22.3949 19.7525C22.4844 19.931 22.544 20.1392 22.4248 20.3772C22.4069 20.4129 22.3903 20.4466 22.3745 20.4788C22.2849 20.6611 22.219 20.7952 22.067 20.9721C22.0073 21.0416 21.9455 21.1166 21.8837 21.1916C21.7606 21.341 21.6376 21.4904 21.5304 21.5968C21.3513 21.7746 21.1649 21.9675 21.3736 22.3245C21.5823 22.6815 22.3002 23.8492 23.3637 24.7948C24.5068 25.8112 25.5004 26.2408 26.004 26.4585C26.1024 26.5011 26.182 26.5355 26.2405 26.5647C26.5981 26.7432 26.8068 26.7133 27.0155 26.4754C27.2241 26.2374 27.9097 25.4342 28.1482 25.0772C28.3866 24.7204 28.6252 24.7798 28.953 24.8987C29.281 25.0179 31.0398 25.8804 31.3975 26.0589C31.4673 26.0937 31.5326 26.1252 31.5931 26.1543Z" fill="#FDFDFD"/>
</svg>
